<?xml version="1.0" encoding="UTF-8" standalone="no"?>
<svg
   xmlns:dc="http://purl.org/dc/elements/1.1/"
   xmlns:cc="http://creativecommons.org/ns#"
   xmlns:rdf="http://www.w3.org/1999/02/22-rdf-syntax-ns#"
   xmlns:svg="http://www.w3.org/2000/svg"
   xmlns="http://www.w3.org/2000/svg"
   xmlns:sodipodi="http://sodipodi.sourceforge.net/DTD/sodipodi-0.dtd"
   xmlns:inkscape="http://www.inkscape.org/namespaces/inkscape"
   viewBox="3.53503 16.7766 79.85027 45.991002"
   id="svg3388"
   version="1.1"
   inkscape:version="0.91 r13725"
   sodipodi:docname="logo.svg"
   width="79.850273"
   height="45.991001">
  <metadata
     id="metadata3400">
    <rdf:RDF>
      <cc:Work
         rdf:about="">
        <dc:format>image/svg+xml</dc:format>
        <dc:type
           rdf:resource="http://purl.org/dc/dcmitype/StillImage" />
        <dc:title></dc:title>
      </cc:Work>
    </rdf:RDF>
  </metadata>
  <defs
     id="defs3398" />
  <sodipodi:namedview
     pagecolor="#ffffff"
     bordercolor="#666666"
     borderopacity="1"
     objecttolerance="10"
     gridtolerance="10"
     guidetolerance="10"
     inkscape:pageopacity="0"
     inkscape:pageshadow="2"
     inkscape:window-width="1165"
     inkscape:window-height="748"
     id="namedview3396"
     showgrid="false"
     fit-margin-top="0"
     fit-margin-left="0"
     fit-margin-right="0"
     fit-margin-bottom="0"
     inkscape:zoom="9.8341805"
     inkscape:cx="40.040356"
     inkscape:cy="23.310545"
     inkscape:window-x="0"
     inkscape:window-y="0"
     inkscape:window-maximized="0"
     inkscape:current-layer="svg3388" />
  <ellipse
     transform="matrix(0.84572782,-0.53361452,0.53361452,0.84572782,0,0)"
     cx="-7.2541494"
     cy="27.754045"
     rx="5.7420001"
     ry="3.1559999"
     id="ellipse3390"
     style="fill:#f39c12" />
  <circle
     cx="79.569305"
     cy="23.865599"
     r="3.816"
     id="circle3392"
     style="fill:#f39c12" />
  <path
     d="m 79.944303,34.4476 c 0,-3.55 -2.876,-6.426 -6.426,-6.426 -0.072,0 -0.142,0.008 -0.213,0.01 0.135,-0.517 0.214,-1.057 0.214,-1.616 0,-3.55 -2.877,-6.427 -6.427,-6.427 -1.257,0 -2.425,0.367 -3.416,0.99 -0.905,-2.45 -3.256,-4.202 -6.022,-4.202 -2.352,0 -4.403,1.268 -5.523,3.153 -1.12,-1.884 -3.17,-3.152 -5.523,-3.152 -3.043,0 -5.586,2.117 -6.25,4.958 -1.15,-1.08 -2.692,-1.744 -4.394,-1.744 -2.673,0 -4.963,1.632 -5.932,3.953 1.177,-1.074 3.84,-0.7 6.248,0.954 2.614,1.795 3.932,4.415 2.945,5.852 -0.98,1.423 -3.852,1.148 -6.447,-0.603 -1.589,-6.14 -5.504,-10.48 -10.086,-10.48 -5.99,0 -10.845,7.418 -10.845,16.57 0,9.15 4.855,16.567 10.845,16.567 4.564,0 8.466,-4.308 10.067,-10.407 0.325,0.05 0.655,0.085 0.993,0.085 0.054,0 0.107,-0.007 0.16,-0.008 -0.1,0.456 -0.16,0.927 -0.16,1.414 0,2.378 1.294,4.45 3.213,5.56 l 0,10.106 c 0,1.775 1.44,3.213 3.214,3.213 1.775,0 3.214,-1.44 3.214,-3.214 l 0,-10.106 c 0.714,-0.412 1.34,-0.957 1.845,-1.603 -0.022,0.15 -0.037,0.305 -0.037,0.463 l 0,11.246 c 0,1.775 1.44,3.213 3.213,3.213 1.774,0 3.213,-1.44 3.213,-3.214 l 0,-8.59 c 1.22,-0.1 2.34,-0.546 3.27,-1.235 0.76,0.747 1.703,1.3 2.755,1.598 l 0,8.228 c 0,1.775 1.44,3.213 3.213,3.213 1.776,0 3.214,-1.44 3.214,-3.214 l 0,-10.01 c 0.482,-0.514 0.88,-1.104 1.174,-1.753 0.023,0.017 0.045,0.035 0.068,0.05 -0.022,0.153 -0.037,0.308 -0.037,0.466 l 0,11.245 c 0,1.775 1.438,3.213 3.212,3.213 1.775,0 3.213,-1.44 3.213,-3.213 l 0,-11.185 c 2.18,-1.028 3.69,-3.24 3.69,-5.81 0,-0.657 -0.1,-1.29 -0.284,-1.89 2.777,-0.71 4.83,-3.22 4.83,-6.217 z m -61.36,-2.113 c -0.98,0 -1.777,-0.796 -1.777,-1.777 0,-0.982 0.795,-1.778 1.777,-1.778 0.98,0 1.776,0.796 1.776,1.777 0,0.98 -0.795,1.776 -1.776,1.776 z m 6.886,0 c -0.98,0 -1.777,-0.796 -1.777,-1.777 0,-0.982 0.794,-1.778 1.776,-1.778 0.98,0 1.777,0.796 1.777,1.777 0,0.98 -0.795,1.776 -1.777,1.776 z"
     id="path3394"
     inkscape:connector-curvature="0"
     style="fill:#f39c12" />
</svg>
